<?xml version="1.0" encoding="UTF-8"?>
<!DOCTYPE svg PUBLIC "-//W3C//DTD SVG 1.1//EN" "http://www.w3.org/Graphics/SVG/1.1/DTD/svg11.dtd">
<!-- Creator: CorelDRAW 2018 (64 Bit Versão de avaliação) -->
<svg xmlns="http://www.w3.org/2000/svg" xml:space="preserve" width="91.44mm" height="91.44mm" version="1.1" style="shape-rendering:geometricPrecision; text-rendering:geometricPrecision; image-rendering:optimizeQuality; fill-rule:evenodd; clip-rule:evenodd"
viewBox="0 0 9144 9144"
 xmlns:xlink="http://www.w3.org/1999/xlink">
 <defs>
  <style type="text/css">
   <![CDATA[
    .fil1 {fill:#A944AE}
    .fil0 {fill:#A944AE;fill-rule:nonzero}
   ]]>
  </style>
 </defs>
 <g id="Camada_x0020_1">
  <metadata id="CorelCorpID_0Corel-Layer"/>
  <g id="_2161163441280">
   <g>
    <path class="fil0" d="M2368.89 4587.52c93.72,-1.7 283.31,-31.2 512.74,-66.91 619.48,-96.4 1522.67,-236.95 1716.56,4.37l36.51 45.44 -18.96 2.98c28.94,12.2 58.01,23.84 87.15,34.71 55.57,20.75 112.08,39.02 169.45,53.51l2.75 -5.9c5.73,-11.64 12.47,-22.87 20.35,-33.61 17.22,-23.47 34.9,-45.5 52.14,-66.96 88.34,-110.05 164.3,-204.68 97.58,-443.96 -41.72,-149.63 -178.04,-380.57 -342.7,-542.07 -120.85,-118.54 -255.48,-198.28 -374.44,-175.3 -101.23,19.57 -145.75,47.52 -181.39,69.89 -74.51,46.77 -116.75,73.29 -408.06,-4.78 -133.6,-35.81 -227.87,-44.57 -314.66,-29.42 -87.16,15.21 -169.56,55.04 -278.26,116.07 -142.33,79.9 -297.94,188.96 -447.01,301.98 -149.08,113.02 -292.98,231.1 -410.48,327.98l-769.05 674.6c167.55,82.36 390.48,162.52 607.31,240.48 149.2,53.64 295.6,106.28 418.17,157.3 48.17,20.05 98.37,41.55 148.9,63.19 310.71,133.05 634.14,271.56 1018.44,292.03 216.74,11.56 438.95,-6.38 629.21,-64.63 149.06,-45.63 278.23,-115.98 368.92,-216.17 -131.94,-90.81 -290.9,-219.35 -430.66,-349.81 -126.05,-117.68 -237.1,-237.61 -299.77,-334.06 -266.7,16.43 -562.85,25.6 -844.92,28.2 -289.15,2.68 -562.55,-1.56 -773.46,-11.88 -17.39,0.1 -32.01,-0.68 -43.53,-2.47l7.01 -67.07 44.16 2.27zm523.06 -0.23l-77.17 11.99c102.56,0.95 209.89,0.94 319.41,-0.07 286.44,-2.64 588.89,-12.2 861.15,-29.45l20.33 -1.29 10.63 17.56c56.47,93.26 169.2,215.72 299.14,337.02 148.52,138.63 318.71,274.81 453.32,364.17l30.58 20.3 -22.77 28.78c-100.37,126.82 -250.86,213.19 -425.85,266.77 -198.26,60.7 -428.46,79.46 -652.23,67.53 -396.51,-21.12 -725.45,-161.99 -1041.46,-297.31 -49.05,-21 -97.83,-41.9 -148.36,-62.93 -123.92,-51.58 -268.07,-103.41 -415.01,-156.24 -239.04,-85.95 -485.44,-174.54 -660.05,-266.55l-43.43 -22.89c279.29,-244.98 560.39,-503.39 844.49,-740.74 117.42,-96.82 261.49,-215.04 413.23,-330.08 151.99,-115.24 310.38,-226.28 454.67,-307.28 115.04,-64.59 203.09,-106.89 299.7,-123.75 97,-16.94 199.99,-7.78 343.76,30.76 263.01,70.48 296.16,49.68 354.62,12.98 40.52,-25.43 91.11,-57.19 204.67,-79.15 144.16,-27.85 299.09,60.71 434.5,193.54 172.66,169.35 316.11,413.32 360.42,572.23 76.01,272.57 -10,379.69 -110.02,504.3 -16.59,20.65 -33.59,41.83 -50.28,64.58 -5.54,7.56 -10.27,15.43 -14.27,23.55 -3.96,7.94 -7.32,16.6 -10.22,25.83l-9.38 29.87 -30.44 -6.98c-69.71,-15.98 -138.54,-37.7 -206.28,-62.99 -67.66,-25.25 -133.43,-53.73 -197.47,-83.45l9.65 -64.16 0.93 -0.13c-253.94,-145.86 -1044.48,-22.84 -1600.51,63.68z"/>
    <path class="fil1" d="M4103.09 4525.06c115.52,205.15 603.31,622.82 830.97,742.9 654.17,345.05 1472.37,-125.25 1346.82,-771.04 -33.36,-171.59 -87.93,-257.39 -236.28,-419.59 -154.53,-168.97 -120.89,-252.3 -119.8,-425.9 -167.36,291.39 131.4,509.52 206.26,672.63 206.44,449.89 -158.11,975.55 -821.91,906.97 -246.3,-25.44 -521.83,-189.69 -739.25,-388.5 197.29,-2.08 521.3,175.47 899.68,-12.4 403.88,-200.54 270.61,-599.24 108.08,-854.41 -187.1,-293.77 -369.45,-571.08 -353.67,-861.58 27.55,-506.13 867.73,-1156.06 1587.55,-605.96 285.73,218.34 357.15,649.3 115.51,895 -184.83,187.94 -713.47,288.92 -892,-14.92 -155.36,-264.41 86.54,-646.27 545.97,-502.37 -305.01,-230.15 -849.25,96.99 -641.09,544.3 183.86,395.08 780.5,308.09 1015.02,143.04 373.02,-262.55 323.61,-790.92 115.88,-1054.81 -577.82,-734.09 -1814.84,-311.6 -1955.86,465.91 -66.38,365.85 149.71,658.69 405.42,1028.5 275.84,398.93 207.25,780.6 -316.42,840.86 -459.44,52.87 -968.37,-310.08 -1100.88,-328.63z"/>
    <path class="fil1" d="M4679.87 2099.75l26.12 9.17c2.52,0.77 6.02,1.65 8.79,2.5 17.63,5.44 17.31,2.93 32.61,10.73 26.08,13.28 37.12,34.05 45.34,53.48 86.37,204.1 -216.91,258.68 -288.36,133.58 -101.75,-178.16 137.23,-406.94 311.07,-412.44 190.25,-6.03 358.57,201.71 387.27,379.29 37.12,229.58 -122.72,425.88 -185.03,579.4 94.26,-157.83 277.76,-375.2 218.9,-628.1 -44.45,-190.97 -236.09,-430.98 -480.34,-376.56 -111.25,24.79 -202.37,95.19 -256.55,174.04 -61.34,89.29 -93.43,246.24 -12.17,334.58 74.67,81.18 246.56,68.89 312.46,-12.42 51.98,-64.15 60,-259.49 -120.11,-247.25z"/>
    <path class="fil1" d="M6559.26 3807.93c412.18,165.56 909.91,-581.86 1218.27,-230.36 172.34,196.44 -5.8,481.28 -271.03,432.62 -137.9,-25.29 -228.3,-141.41 -127.09,-258.89 104.15,-120.89 262.65,-45.48 244.36,61.43 43.99,-113.92 -127.08,-224.93 -260.84,-108.77 -260.08,225.87 143.16,507.05 411.57,318.43 137.53,-96.66 145.04,-253.79 113.91,-358.43 -80.34,-270.04 -373.16,-284.9 -640.69,-114.56 -188.57,120.06 -290.11,217.28 -505.67,243.61 -45.82,5.6 -139.53,2.45 -182.79,14.92z"/>
    <path class="fil1" d="M3621.63 3289.77c125.73,3.03 159.02,-3.85 275.87,50.21 122.9,56.86 319.02,-81.41 407.15,-57.14 -87.63,-18.75 -270.2,125.52 -403.9,85.13 -153.49,-46.38 -110.3,-42.95 -279.12,-37.19 -11.33,0 -20.51,-9.18 -20.51,-20.51 0,-11.32 9.18,-20.5 20.51,-20.5z"/>
    <path class="fil1" d="M1705.75 4425.9c-7.15,85.23 -408.89,411.31 -440.69,487.34 241.87,78.86 535.45,170.04 742.24,326.54 11.46,8.67 23.95,18.01 30.26,31.32 -6.64,-13.08 -19.32,-22.04 -30.95,-30.36 -227.53,-162.79 -495.37,-218.24 -754.21,-307.27 -86.84,-29.87 392.53,-423.07 412.36,-507.11 0.09,-10.95 8.81,-19.96 19.85,-20.31 11.32,-0.35 20.78,8.53 21.14,19.85z"/>
   </g>
   <g>
    <path class="fil0" d="M1586.33 5449.72c0,-14.06 -7.21,-27.48 -15.98,-29.08 -204.8,-37.39 -409.74,-61.18 -613.84,-84.85 -9.47,-1.09 -16.71,9.91 -16.71,25.09 0,92.35 0,184.55 0,276.9 0,15.02 7.26,27.85 16.71,28.76 61.73,5.95 124.22,11.35 186.69,16.62 0,169.37 0,338.73 0,508.1 0,169.21 0,338.58 0,507.95 0,14.86 7.27,26.99 16.71,27 68.28,0.14 137.3,0.36 206.31,0.64 9.44,0.03 16.7,-11.82 16.7,-26.36 0,-165.86 0,-331.71 0,-497.56 0,-165.85 0,-331.87 0,-497.72 62.48,7.67 124.95,16.3 187.43,26.68 8.71,1.44 15.98,-8.47 15.98,-22.69 0,-86.44 0,-172.88 0,-259.48zm386.46 110.08c-70.45,-30.55 -140.17,-58.72 -209.94,-84.2 -7.23,-2.64 -13.6,1.92 -15.98,10.55 -51.38,186.79 -101.5,380.14 -151.1,578.41 -50.65,202.47 -100.25,409.52 -150.37,619.15 -0.73,3.03 -0.73,6.07 -0.73,9.11 0,2.71 0,5.59 0,8.15 0,14.54 7.27,26.32 15.99,26.36 69.73,0.28 139.47,0.69 209.93,1.28 6.54,0.05 12.86,-6.61 15.26,-16.3 15.03,-60.61 30.51,-120.95 45.76,-180.87 90.81,5.75 181.62,12.3 273.15,19.49 14.53,56.41 29.96,112.28 45.04,167.29 2.35,8.58 8.72,14.46 15.25,14.54 69.74,0.88 139.48,1.87 209.94,2.72 8.72,0.1 15.99,-8.63 15.99,-19.82 0,-2.07 0,-4.31 0,-6.38 0,-2.4 -0.1,-4.77 -0.73,-6.88 -50.94,-169.01 -102.54,-345.06 -151.83,-528.87 -50.96,-190.08 -100.48,-387.74 -150.37,-591.99 -2.41,-9.85 -7.98,-18.58 -15.26,-21.74zm-163.44 672.53c19.61,-72.39 39.22,-144.12 58.84,-214.59 19.61,79.09 39.22,157.22 58.84,234.56 -39.23,-6.87 -78.46,-13.58 -117.68,-19.97zm1051.88 -343.21c-71.95,-14.37 -143.92,-29.11 -215.75,-48.1 -7.35,-1.94 -14.27,1.64 -15.98,9.11 -17.18,74.83 -33.52,150.01 -50.13,226.25 -16.81,77.15 -33.41,154.83 -50.12,233.6 -10.9,-84.04 -21.85,-168.88 -31.97,-254.21 -10.22,-86.28 -20.05,-173.24 -30.5,-260.6 -1.17,-9.79 -8.76,-19.43 -16.72,-22.69 -69.04,-28.37 -137.99,-58.56 -206.3,-89.16 -10.14,-4.54 -17.37,3.35 -15.99,16.3 18.95,176.71 37.64,350.73 56.67,521.84 18.74,168.58 38.15,334.54 56.66,498.04 1.1,9.71 7.99,17.15 15.98,17.26 74.82,1 149.65,1.64 225.2,2.39 4.36,0.05 8.63,-1.52 11.62,-4.63 39.14,-40.67 78.95,-144.68 108.97,-237.27 29.54,-91.15 50.12,-172.57 50.12,-172.57 0,0 20.13,84.75 50.12,178.96 29.58,92.89 70.55,194.38 109.7,233.28 2.98,2.96 7.27,4.44 11.62,4.47 74.82,0.45 149.65,0.83 225.2,1.12 7.98,0.03 14.85,-5.8 15.98,-13.58 18.49,-127.88 37.73,-254.86 56.66,-381.08 18.84,-125.59 38.43,-250.28 57.39,-374.37 1.37,-9.03 -6.53,-18.28 -16.71,-19.65 -69,-9.33 -138.03,-19.48 -206.31,-30.2 -7.99,-1.25 -14.79,3.47 -15.98,11.02 -11.15,70.43 -21.81,140.93 -31.96,211.87 -10.19,71.26 -21.07,142.69 -31.24,214.43 -16.71,-74.62 -33.47,-149.87 -50.13,-225.61 -16.75,-76.2 -33.62,-153.03 -50.12,-230.4 -1.66,-7.79 -8.75,-14.38 -15.98,-15.82zm1044.62 455.05c0,0 28.33,-27.64 28.33,-107.21 0,-75.1 -27.84,-132.21 -69.01,-171.6 -41.65,-39.86 -98.85,-61.69 -159.82,-66.15 -128.63,-9.43 -256.46,-22.6 -384.28,-37.55 -8.75,-1.03 -16.71,4.63 -16.71,13.1 0,125.59 0,251.02 0,376.44 0,125.43 0,251.02 0,376.45 0,8.47 7.99,15.31 16.71,15.34 143.83,0.45 287.67,0.78 432.23,1.12 58.11,0.14 114.05,-19.5 154.73,-58.48 40.68,-38.99 68.28,-97.31 68.28,-174.96 0,-101.62 -69.73,-166.18 -70.46,-166.5 0,0 0,0 0,0zm-361.77 -174.48c0,-4.15 3.64,-7.24 8.72,-6.87 25.43,1.86 50.85,3.63 76.28,5.11 34.87,2.03 63.2,28.45 63.2,59.13 0,30.35 -28.34,53.9 -63.2,52.24 -25.43,-1.21 -50.86,-2.69 -76.28,-4.15 -5.08,-0.29 -8.72,-4 -8.72,-7.99 0,-32.44 0,-65.03 0,-97.47zm124.22 400.26c-38.5,-0.64 -77,-1.41 -115.5,-2.4 -5.08,-0.13 -8.72,-3.68 -8.72,-7.83 0,-32.44 0,-64.87 0,-97.47 0,-3.99 3.64,-7.21 8.72,-7.03 38.5,1.41 77.01,2.67 115.5,3.84 34.88,1.06 63.21,26.68 63.21,57.04 0,30.36 -28.33,54.65 -63.21,53.85 0,0 0,0 0,0zm810.71 -572.02c-70.44,5.4 -140.92,10.01 -210.66,12.78 -6.54,0.26 -12.78,4.12 -15.26,9.91 -50.55,117.72 -100.86,234.77 -151.1,351.35 -50,116.05 -100.22,232.34 -150.37,348.65 -0.7,1.61 -1.45,3.2 -1.45,4.95 0,1.44 0,3.04 0,4.48 0,7.99 7.26,14.54 16.7,14.54 69.74,0 139.48,0 209.22,0 7.26,0 13.4,-3.68 15.98,-9.43 15.58,-34.84 30.51,-70.15 45.76,-105.3 90.81,-0.64 181.61,-1.75 272.42,-3.03 15.25,35.63 30.71,71.5 45.77,107.37 2.38,5.67 8.72,9.61 15.25,9.59 69.74,-0.29 139.48,-0.68 209.21,-0.96 9.44,-0.03 16.71,-6.87 16.71,-15.34 0,-1.6 0,-3.2 0,-4.95 0,-1.76 0,-3.52 -0.72,-5.28 -50.85,-123.66 -101.27,-245.12 -151.83,-364.14 -49.69,-116.98 -100.41,-232.58 -150.37,-347.36 -2.33,-5.37 -8.69,-8.33 -15.26,-7.83zm-163.45 450.58c18.89,-45.54 38.5,-91.23 58.12,-137.41 19.61,44.74 39.23,89.48 58.84,134.54 -39.23,1.11 -78.46,2.39 -116.96,2.87zm1040.99 0.48c-7.08,-5.36 -17.13,-3.9 -22.52,2.4 -38.2,44.67 -98.07,78.21 -159.82,79.73 -113.32,2.79 -204.85,-81.01 -204.85,-187.91 0,-106.73 91.52,-200.83 204.85,-208.51 61.02,-4.13 120.57,24.48 159.1,65.19 5.77,6.1 15.48,6.5 22.52,0.64 54.71,-45.58 109.01,-91.81 164.17,-138.37 7.31,-6.17 8,-16.79 2.18,-23.65 -81.34,-95.72 -207.11,-151.37 -347.97,-138.69 -123.57,11.12 -235.85,72.13 -316.72,156.59 -80.4,83.95 -130.76,191.25 -130.76,303.42 0,112.17 50.6,211.35 130.76,284.41 81.11,73.93 193.23,121.44 316.72,121.44 140.94,0 267.73,-64.56 349.42,-166.97 5.49,-6.88 3.88,-18.05 -2.9,-23.33 -54.97,-42.82 -109.51,-84.94 -164.18,-126.39zm687.22 -612.76c-70.47,11.29 -140.2,20.79 -209.95,27.16 -7.25,0.66 -13.5,5.43 -15.98,12.3 -51.28,142.37 -100.8,283.84 -151.1,423.75 -49.94,138.91 -100.23,276.9 -150.37,413.67 -0.7,1.92 -0.73,3.83 -0.73,5.75 0,1.76 0,3.52 0,5.28 0,9.26 7.27,16.79 16.71,16.77 69.74,-0.14 139.48,-0.17 209.21,-0.32 6.54,-0.01 12.92,-4.69 15.26,-11.18 15.09,-41.92 30.51,-83.73 46.49,-125.91 90.81,-1.28 181.61,-3.52 272.42,-6.23 14.53,43.14 29.96,86.54 45.04,130.22 2.35,6.81 8.72,11.54 15.25,11.5 69.74,-0.43 139.48,-0.85 209.95,-1.28 8.71,-0.05 16.7,-8.46 16.7,-19.01 0,-1.92 0,-3.83 0,-5.91 0,-2.24 -0.8,-4.45 -1.45,-6.39 -50.93,-151.45 -100.5,-299.6 -151.1,-444.2 -49.65,-141.88 -99.83,-280.73 -150.37,-416.87 -2.49,-6.71 -8.73,-10.27 -15.98,-9.1zm-163.45 549.81c19.61,-55.13 39.22,-110.57 58.84,-166.66 19.61,53.37 39.23,106.58 58.84,160.27 -39.23,2.55 -78.46,4.63 -117.68,6.39zm1082.39 -13.9c29.79,-31.64 55.24,-74.14 72.65,-127.99 17.45,-54 27.87,-119.36 27.6,-195.89 -0.45,-129.75 -29.67,-221.87 -74.82,-279.3 -44.93,-57.13 -108.35,-81.53 -177.98,-73.82 -135.23,14.97 -270.26,39.19 -405.35,67.11 -9.47,1.95 -16.71,12.14 -16.71,22.69 0,157.86 0,315.89 0,473.75 0,158.02 0,315.89 0,473.91 0,10.55 7.26,18.87 16.71,18.86 68.28,-0.14 137.29,-0.34 206.31,-0.48 8.71,-0.02 16.7,-8.95 16.7,-19.98 0,-86.76 0,-173.52 0,-260.44 109.7,3.99 180.47,89.95 185.24,259.97 0.31,11.01 7.27,19.97 15.99,19.97 73.37,0 146.74,-0.18 220.83,-0.32 9.44,-0.02 17,-9.89 16.71,-21.41 -1.89,-75.89 -13.06,-143.98 -30.51,-203.56 -17.41,-59.45 -42.86,-110.41 -73.37,-153.07zm-334.89 -388.75c0,-5.12 3.65,-9.69 7.99,-10.23 31.97,-3.93 64.61,-7.97 97.35,-10.86 48.63,-4.3 87.9,38.66 87.9,113.6 0,74.94 -39.25,121.9 -87.9,124.95 -32.72,2.05 -65.38,5 -97.35,7.67 -4.35,0.36 -7.99,-3.36 -7.99,-8.63 0,-72.22 0,-144.28 0,-216.5zm687.21 750.17c9.45,-0.06 16.71,-10.07 16.71,-22.21 0,-178.95 0,-358.07 0,-537.02 0,-178.96 0,-358.08 0,-537.19 0,-12.46 -7.27,-20.49 -16.71,-18.38 -69.01,15.47 -137.27,28.9 -205.58,40.27 -9.42,1.57 -16.71,11.83 -16.71,23.65 0,171.92 0,343.69 0,515.45 0,171.77 0,343.69 0,515.46 0,11.66 7.27,21.13 16.71,21.09 68.29,-0.28 136.58,-0.71 205.58,-1.12zm570.26 -1375.72c-70.41,56.16 -140.06,104.46 -209.94,140.13 -7.12,3.64 -13.43,12.38 -15.98,23.01 -51.2,212.74 -100.25,417.86 -151.1,615.48 -49.39,191.92 -100.19,378.38 -150.38,560.03 -0.66,2.42 -0.72,5.11 -0.72,7.67 0,2.24 0,4.64 0,6.87 0,12.31 7.26,22.12 15.98,22.05 69.73,-0.56 139.48,-1.19 209.94,-1.92 6.54,-0.06 12.9,-6.43 15.26,-15.5 15.08,-58.04 30.51,-116.63 45.76,-175.76 90.81,-7.98 181.61,-19.17 273.15,-32.59 14.52,65.19 30.02,131.45 45.04,198.77 2.41,10.81 8.71,17.86 15.25,17.74 69.73,-1.32 139.47,-2.28 209.94,-2.56 8.71,-0.03 16.71,-13.43 16.71,-30.04 0,-3.04 0,-6.23 0,-9.43 0,-3.51 -0.78,-7.02 -1.45,-10.22 -50.91,-241.9 -100.43,-479.16 -151.83,-706.4 -48.85,-215.99 -100.43,-416.35 -150.38,-602.21 -2.34,-8.74 -7.93,-10.95 -15.25,-5.12zm-163.45 867.45c19.62,-82.44 39.23,-166.81 58.84,-253.25 19.62,71.75 39.23,144.93 58.84,219.38 -39.22,12.79 -78.45,24.13 -117.68,33.87z"/>
    <g>
     <path class="fil1" d="M5925.34 6987.81l0 -21.89c0,-32.67 24.68,-57.36 57.35,-57.36l110.7 0c95.97,0 167.65,54.32 167.65,153.46 0,95.95 -72.24,148.19 -164,148.19l-6.71 0 0 28.21c0,32.67 -24.69,57.35 -57.36,57.35l-50.28 0c-32.66,0 -57.35,-24.69 -57.35,-57.35l0 -21.72c-36.17,51.52 -96.56,84.34 -165.67,84.34 -65.46,0 -123.05,-29.61 -159.6,-76.63l0 14.01c0,32.66 -24.69,57.35 -57.35,57.35l-50.28 0c-32.67,0 -57.36,-24.68 -57.36,-57.35l0 -54.97 -26.81 0 0 54.97c0,32.66 -24.69,57.35 -57.35,57.35l-49.88 0c-24.48,0 -44.48,-13.87 -52.96,-34.57 -29.81,26.82 -72.95,39.84 -120.18,39.84 -59.89,0 -107.36,-15.22 -152.3,-52.88 -25.04,-20.02 -28.58,-53.52 -9.46,-79.57l25.9 -34.22c0.19,-0.24 0.38,-0.48 0.58,-0.72 -23.46,-20.53 -38.46,-49.62 -38.46,-91.5 0,-94.69 78.05,-137.64 162.38,-137.64 47.76,0 92.12,14.22 130.12,42.45 7.49,-22.8 28.41,-38.4 54.38,-38.4l49.88 0c32.67,0 57.35,24.69 57.35,57.36l0 61.86 26.81 0 0 -61.86c0,-32.67 24.69,-57.36 57.36,-57.36l50.28 0c32.67,0 57.35,24.69 57.35,57.36l0 14.17c36.58,-47.09 94.21,-76.8 159.6,-76.8 69.03,0 129.47,32.94 165.67,84.52zm-2804.68 -21.89l0 107.05 -117.19 0 0 -107.05c0,-7.71 -4.46,-12.17 -12.16,-12.17l-49.88 0c-7.7,0 -12.16,4.46 -12.16,12.17l0 272.5c0,7.7 4.46,12.16 12.16,12.16l49.88 0c7.7,0 12.16,-4.46 12.16,-12.16l0 -100.16 117.19 0 0 100.16c0,7.7 4.46,12.16 12.17,12.16l50.28 0c7.7,0 12.16,-4.46 12.16,-12.16l0 -272.5c0,-7.71 -4.46,-12.17 -12.16,-12.17l-50.28 0c-7.71,0 -12.17,4.46 -12.17,12.17zm279.4 289.93c90.02,0 156.11,-68.93 156.11,-153.68 0,-84.35 -66.09,-153.69 -156.11,-153.69 -89.62,0 -155.72,69.34 -155.72,153.69 0,84.75 66.1,153.68 155.72,153.68zm0 -239.65c45.01,0 81.1,34.87 81.1,85.97 0,51.09 -36.09,86.37 -81.1,86.37 -45.01,0 -81.1,-34.47 -81.1,-86.37 0,-49.47 36.09,-85.97 81.1,-85.97zm347.92 239.65c90.02,0 156.11,-68.93 156.11,-153.68 0,-84.35 -66.09,-153.69 -156.11,-153.69 -89.62,0 -155.72,69.34 -155.72,153.69 0,84.75 66.1,153.68 155.72,153.68zm0 -239.65c45.01,0 81.1,34.87 81.1,85.97 0,51.09 -36.09,86.37 -81.1,86.37 -45.01,0 -81.1,-34.47 -81.1,-86.37 0,-49.47 36.09,-85.97 81.1,-85.97zm469.16 219.38l-122.46 -128.95 111.11 -137.87c6.48,-8.11 3.24,-15.01 -6.9,-15.01l-64.88 0c-6.48,0 -10.95,2.44 -15,7.3l-90.02 115.57 0 -110.7c0,-7.71 -4.46,-12.17 -12.17,-12.17l-50.28 0c-7.7,0 -12.16,4.46 -12.16,12.17l0 272.5c0,7.7 4.46,12.16 12.16,12.16l50.28 0c7.71,0 12.17,-4.46 12.17,-12.16l0 -98.95 95.7 104.62c4.05,4.46 8.92,6.49 15,6.49l70.96 0c10.55,0 13.79,-7.3 6.49,-15zm86.98 6.08l15.01 -30.82 122.39 0 15.41 30.82c2.84,6.08 7.7,8.92 14.19,8.92l56.37 0c9.32,0 12.97,-6.49 8.51,-14.6l-141.86 -273.3c-3.24,-6.09 -6.48,-9.33 -13.38,-9.33 -6.89,0 -10.54,3.24 -13.78,9.33l-142.33 273.3c-4.47,8.11 -0.41,14.6 8.92,14.6l56.36 0c6.49,0 11.35,-2.84 14.19,-8.92zm76.24 -160.58l32.78 69.75 -65.63 0 32.85 -69.75zm378.12 -115.16l0 107.05 -117.19 0 0 -107.05c0,-7.71 -4.46,-12.17 -12.16,-12.17l-49.88 0c-7.7,0 -12.16,4.46 -12.16,12.17l0 272.5c0,7.7 4.46,12.16 12.16,12.16l49.88 0c7.7,0 12.16,-4.46 12.16,-12.16l0 -100.16 117.19 0 0 100.16c0,7.7 4.46,12.16 12.17,12.16l50.28 0c7.7,0 12.16,-4.46 12.16,-12.16l0 -272.5c0,-7.71 -4.46,-12.17 -12.16,-12.17l-50.28 0c-7.71,0 -12.17,4.46 -12.17,12.17zm268.85 196.67l-25.14 33.25c-4.46,6.08 -4.46,12.16 1.63,17.03 32.44,27.17 67.71,42.98 124.08,42.98 69.34,0 116.38,-30.82 116.38,-94.89 0,-73.8 -61.64,-83.12 -104.22,-90.83 -35.28,-6.49 -65.69,-8.92 -65.69,-30 0,-18.66 22.71,-22.31 40.15,-22.31 25.54,0 50.28,8.92 71.36,23.52 6.49,4.46 12.58,3.65 17.04,-2.43l24.73 -34.06c4.46,-6.49 4.06,-12.17 -2.03,-17.03 -27.98,-22.71 -64.07,-38.12 -109.08,-38.12 -51.49,0 -117.19,19.46 -117.19,92.45 0,75.02 79.08,85.97 115.98,92.05 28.79,5.27 54.33,8.11 54.33,29.2 0,15.41 -16.22,25.14 -41.36,25.14 -33.65,0 -62.85,-13.38 -83.93,-28.39 -6.49,-4.46 -12.17,-3.65 -17.04,2.44zm452.94 -196.67l0 107.05 -117.19 0 0 -107.05c0,-7.71 -4.46,-12.17 -12.16,-12.17l-49.88 0c-7.7,0 -12.16,4.46 -12.16,12.17l0 272.5c0,7.7 4.46,12.16 12.16,12.16l49.88 0c7.7,0 12.16,-4.46 12.16,-12.16l0 -100.16 117.19 0 0 100.16c0,7.7 4.46,12.16 12.17,12.16l50.28 0c7.7,0 12.16,-4.46 12.16,-12.16l0 -272.5c0,-7.71 -4.46,-12.17 -12.16,-12.17l-50.28 0c-7.71,0 -12.17,4.46 -12.17,12.17zm279.4 289.93c90.02,0 156.11,-68.93 156.11,-153.68 0,-84.35 -66.09,-153.69 -156.11,-153.69 -89.62,0 -155.72,69.34 -155.72,153.69 0,84.75 66.1,153.68 155.72,153.68zm0 -239.65c45.01,0 81.1,34.87 81.1,85.97 0,51.09 -36.09,86.37 -81.1,86.37 -45.01,0 -81.1,-34.47 -81.1,-86.37 0,-49.47 36.09,-85.97 81.1,-85.97zm333.72 -62.45l-110.7 0c-7.7,0 -12.16,4.46 -12.16,12.17l0 272.5c0,7.7 4.46,12.16 12.16,12.16l50.28 0c7.71,0 12.17,-4.46 12.17,-12.16l0 -73.4 51.9 0c79.08,0 118.81,-42.98 118.81,-103 0,-60.01 -36.08,-108.27 -122.46,-108.27zm6.49 148.82l-54.74 0 0 -82.31 54.74 0c30.82,0 41.77,21.89 41.77,41.76 0,19.87 -10.95,40.55 -41.77,40.55zm-856.19 -42.91l-0.36 0.5c0.12,0.09 0.24,0.17 0.36,0.26l0 -0.76zm-721.79 51.08l0 -144.82c0,-32.67 24.68,-57.36 57.35,-57.36l49.88 0c32.67,0 57.35,24.69 57.35,57.36l0 61.86 26.81 0 0 -61.86c0,-32.67 24.69,-57.36 57.36,-57.36l50.28 0c32.67,0 57.35,24.69 57.35,57.36l0 272.5c0,32.66 -24.69,57.35 -57.35,57.35l-50.28 0c-32.67,0 -57.36,-24.68 -57.36,-57.35l0 -54.97 -26.81 0 0 54.97c0,32.66 -24.69,57.35 -57.35,57.35l-49.88 0c-9.43,0 -18.2,-2.06 -25.9,-5.77 -7.54,3.67 -16.26,5.77 -25.86,5.77l-56.37 0c-24.13,0 -44.9,-13.07 -54.61,-33.9l-2.92 -5.84 -66.21 0 -2.32 4.75c-10.23,21.92 -31,34.99 -55.13,34.99l-56.36 0c-3.94,0 -7.73,-0.36 -11.37,-1.03 -3.67,0.67 -7.52,1.03 -11.55,1.03l-70.96 0c-18.73,0 -35.69,-7.34 -48.34,-21.18l-19.08 -20.85c-6.38,24.76 -28.13,42.03 -55.45,42.03l-50.28 0c-32.66,0 -57.35,-24.69 -57.35,-57.35l0 -15.63c-36.56,48.01 -94.87,78.25 -161.21,78.25 -74.69,0 -139.14,-38.54 -173.77,-97.53 -34.7,59.05 -99.31,97.53 -174.15,97.53 -65.46,0 -123.05,-29.61 -159.6,-76.63l0 14.01c0,32.66 -24.69,57.35 -57.35,57.35l-50.28 0c-32.67,0 -57.36,-24.68 -57.36,-57.35l0 -54.97 -26.81 0 0 54.97c0,32.66 -24.69,57.35 -57.35,57.35l-49.88 0c-32.66,0 -57.35,-24.69 -57.35,-57.35l0 -272.5c0,-32.67 24.68,-57.36 57.35,-57.36l49.88 0c32.67,0 57.35,24.69 57.35,57.36l0 61.86 26.81 0 0 -61.86c0,-32.67 24.69,-57.36 57.36,-57.36l50.28 0c32.67,0 57.35,24.69 57.35,57.36l0 14.17c36.58,-47.09 94.21,-76.8 159.6,-76.8 74.74,0 139.42,38.62 174.15,97.7 34.66,-59.03 99.17,-97.7 173.77,-97.7 66.26,0 124.62,30.36 161.21,78.42l0 -15.79c0,-32.67 24.68,-57.36 57.35,-57.36l50.28 0c26.48,0 47.72,16.22 54.82,39.77l12.65 -16.21c12.67,-15.2 29.85,-23.56 49.72,-23.56l64.88 0c47.99,0 72.05,51.38 42.09,88.56l-86.3 107.07 56.61 59.61 115.79 -222.35c11.05,-20.75 29.79,-33.29 53.68,-33.29 24.01,0 42.23,12.54 53.49,33.7l87.65 168.88zm-1121.84 -49.35c-22.64,0 -35.91,19.41 -35.91,40.78 0,22.46 12.09,41.18 35.91,41.18 23.43,0 35.91,-19.12 35.91,-41.18 0,-22.17 -12.49,-40.78 -35.91,-40.78zm347.92 0c-22.64,0 -35.91,19.41 -35.91,40.78 0,22.46 12.09,41.18 35.91,41.18 23.43,0 35.91,-19.12 35.91,-41.18 0,-22.17 -12.49,-40.78 -35.91,-40.78zm2011.69 0c-22.64,0 -35.91,19.41 -35.91,40.78 0,22.46 12.09,41.18 35.91,41.18 23.43,0 35.91,-19.12 35.91,-41.18 0,-22.17 -12.49,-40.78 -35.91,-40.78z"/>
     <g>
      <rect class="fil1" x="6419.18" y="7081.26" width="1785.02" height="41.8"/>
      <rect class="fil1" x="939.8" y="7081.26" width="1737.1" height="41.8"/>
     </g>
    </g>
   </g>
  </g>
 </g>
</svg>
